<mxfile host="app.diagrams.net" agent="Mozilla/5.0 (Macintosh; Intel Mac OS X 10_15_7) AppleWebKit/537.36 (KHTML, like Gecko) Chrome/130.0.0.0 Safari/537.36" version="24.8.3">
  <diagram name="第 1 页" id="qo2unug9oc-8ZC_03QnL">
    <mxGraphModel dx="1880" dy="3389" grid="1" gridSize="10" guides="1" tooltips="1" connect="1" arrows="1" fold="1" page="1" pageScale="1" pageWidth="827" pageHeight="1169" math="0" shadow="0">
      <root>
        <mxCell id="0" />
        <mxCell id="1" parent="0" />
        <mxCell id="vfQlixo-I0mt2_jxHIi5-10" style="edgeStyle=orthogonalEdgeStyle;curved=1;rounded=0;orthogonalLoop=1;jettySize=auto;html=1;exitX=1;exitY=0.5;exitDx=0;exitDy=0;fontSize=12;startSize=8;endSize=8;entryX=0;entryY=0.5;entryDx=0;entryDy=0;endArrow=none;endFill=0;" edge="1" parent="1" source="e6HZahfR6T_WhfrIHTl6-1" target="e6HZahfR6T_WhfrIHTl6-2">
          <mxGeometry relative="1" as="geometry">
            <mxPoint x="310" y="200" as="targetPoint" />
          </mxGeometry>
        </mxCell>
        <mxCell id="e6HZahfR6T_WhfrIHTl6-1" value="计算机相关职业" style="rounded=1;whiteSpace=wrap;html=1;" parent="1" vertex="1">
          <mxGeometry x="70" y="555" width="120" height="60" as="geometry" />
        </mxCell>
        <mxCell id="vfQlixo-I0mt2_jxHIi5-30" style="edgeStyle=none;curved=1;rounded=0;orthogonalLoop=1;jettySize=auto;html=1;exitX=1;exitY=0.5;exitDx=0;exitDy=0;entryX=0;entryY=0.5;entryDx=0;entryDy=0;fontSize=12;startSize=8;endSize=8;endArrow=none;endFill=0;" edge="1" parent="1" source="e6HZahfR6T_WhfrIHTl6-2" target="vfQlixo-I0mt2_jxHIi5-23">
          <mxGeometry relative="1" as="geometry" />
        </mxCell>
        <mxCell id="e6HZahfR6T_WhfrIHTl6-2" value="软件开发方向" style="rounded=1;whiteSpace=wrap;html=1;" parent="1" vertex="1">
          <mxGeometry x="320" y="150" width="120" height="60" as="geometry" />
        </mxCell>
        <mxCell id="vfQlixo-I0mt2_jxHIi5-1" value="数据科学与人工智能方向" style="rounded=1;whiteSpace=wrap;html=1;" vertex="1" parent="1">
          <mxGeometry x="320" y="270" width="120" height="60" as="geometry" />
        </mxCell>
        <mxCell id="vfQlixo-I0mt2_jxHIi5-2" value="嵌入式系统与物联网" style="rounded=1;whiteSpace=wrap;html=1;" vertex="1" parent="1">
          <mxGeometry x="320" y="390" width="120" height="60" as="geometry" />
        </mxCell>
        <mxCell id="vfQlixo-I0mt2_jxHIi5-3" value="网络安全方向" style="rounded=1;whiteSpace=wrap;html=1;" vertex="1" parent="1">
          <mxGeometry x="320" y="500" width="120" height="60" as="geometry" />
        </mxCell>
        <mxCell id="vfQlixo-I0mt2_jxHIi5-4" value="区块链方向" style="rounded=1;whiteSpace=wrap;html=1;" vertex="1" parent="1">
          <mxGeometry x="320" y="610" width="120" height="60" as="geometry" />
        </mxCell>
        <mxCell id="vfQlixo-I0mt2_jxHIi5-5" value="云计算与大数据方向" style="rounded=1;whiteSpace=wrap;html=1;" vertex="1" parent="1">
          <mxGeometry x="320" y="720" width="120" height="60" as="geometry" />
        </mxCell>
        <mxCell id="vfQlixo-I0mt2_jxHIi5-6" value="前端开发与UI/UX设计方向" style="rounded=1;whiteSpace=wrap;html=1;" vertex="1" parent="1">
          <mxGeometry x="320" y="830" width="120" height="60" as="geometry" />
        </mxCell>
        <mxCell id="vfQlixo-I0mt2_jxHIi5-7" value="产品管理方向" style="rounded=1;whiteSpace=wrap;html=1;" vertex="1" parent="1">
          <mxGeometry x="320" y="940" width="120" height="60" as="geometry" />
        </mxCell>
        <mxCell id="vfQlixo-I0mt2_jxHIi5-16" style="edgeStyle=orthogonalEdgeStyle;curved=1;rounded=0;orthogonalLoop=1;jettySize=auto;html=1;exitX=1;exitY=0.5;exitDx=0;exitDy=0;fontSize=12;startSize=8;endSize=8;entryX=0;entryY=0.5;entryDx=0;entryDy=0;endArrow=none;endFill=0;" edge="1" parent="1" source="e6HZahfR6T_WhfrIHTl6-1" target="vfQlixo-I0mt2_jxHIi5-1">
          <mxGeometry relative="1" as="geometry">
            <mxPoint x="330" y="190" as="targetPoint" />
            <mxPoint x="200" y="595" as="sourcePoint" />
          </mxGeometry>
        </mxCell>
        <mxCell id="vfQlixo-I0mt2_jxHIi5-17" style="edgeStyle=orthogonalEdgeStyle;curved=1;rounded=0;orthogonalLoop=1;jettySize=auto;html=1;exitX=1;exitY=0.5;exitDx=0;exitDy=0;fontSize=12;startSize=8;endSize=8;entryX=0;entryY=0.5;entryDx=0;entryDy=0;endArrow=none;endFill=0;" edge="1" parent="1" source="e6HZahfR6T_WhfrIHTl6-1" target="vfQlixo-I0mt2_jxHIi5-2">
          <mxGeometry relative="1" as="geometry">
            <mxPoint x="330" y="310" as="targetPoint" />
            <mxPoint x="200" y="595" as="sourcePoint" />
          </mxGeometry>
        </mxCell>
        <mxCell id="vfQlixo-I0mt2_jxHIi5-18" style="edgeStyle=orthogonalEdgeStyle;curved=1;rounded=0;orthogonalLoop=1;jettySize=auto;html=1;exitX=1;exitY=0.5;exitDx=0;exitDy=0;fontSize=12;startSize=8;endSize=8;entryX=0;entryY=0.5;entryDx=0;entryDy=0;endArrow=none;endFill=0;" edge="1" parent="1" source="e6HZahfR6T_WhfrIHTl6-1" target="vfQlixo-I0mt2_jxHIi5-3">
          <mxGeometry relative="1" as="geometry">
            <mxPoint x="340" y="320" as="targetPoint" />
            <mxPoint x="210" y="605" as="sourcePoint" />
          </mxGeometry>
        </mxCell>
        <mxCell id="vfQlixo-I0mt2_jxHIi5-19" style="edgeStyle=orthogonalEdgeStyle;curved=1;rounded=0;orthogonalLoop=1;jettySize=auto;html=1;exitX=1;exitY=0.5;exitDx=0;exitDy=0;fontSize=12;startSize=8;endSize=8;entryX=0;entryY=0.5;entryDx=0;entryDy=0;endArrow=none;endFill=0;" edge="1" parent="1" source="e6HZahfR6T_WhfrIHTl6-1" target="vfQlixo-I0mt2_jxHIi5-4">
          <mxGeometry relative="1" as="geometry">
            <mxPoint x="350" y="330" as="targetPoint" />
            <mxPoint x="220" y="615" as="sourcePoint" />
          </mxGeometry>
        </mxCell>
        <mxCell id="vfQlixo-I0mt2_jxHIi5-20" style="edgeStyle=orthogonalEdgeStyle;curved=1;rounded=0;orthogonalLoop=1;jettySize=auto;html=1;exitX=1;exitY=0.5;exitDx=0;exitDy=0;fontSize=12;startSize=8;endSize=8;entryX=0;entryY=0.5;entryDx=0;entryDy=0;endArrow=none;endFill=0;" edge="1" parent="1" source="e6HZahfR6T_WhfrIHTl6-1" target="vfQlixo-I0mt2_jxHIi5-5">
          <mxGeometry relative="1" as="geometry">
            <mxPoint x="360" y="340" as="targetPoint" />
            <mxPoint x="230" y="625" as="sourcePoint" />
          </mxGeometry>
        </mxCell>
        <mxCell id="vfQlixo-I0mt2_jxHIi5-21" style="edgeStyle=orthogonalEdgeStyle;curved=1;rounded=0;orthogonalLoop=1;jettySize=auto;html=1;exitX=1;exitY=0.5;exitDx=0;exitDy=0;fontSize=12;startSize=8;endSize=8;entryX=0;entryY=0.5;entryDx=0;entryDy=0;endArrow=none;endFill=0;" edge="1" parent="1" source="e6HZahfR6T_WhfrIHTl6-1" target="vfQlixo-I0mt2_jxHIi5-6">
          <mxGeometry relative="1" as="geometry">
            <mxPoint x="370" y="350" as="targetPoint" />
            <mxPoint x="240" y="635" as="sourcePoint" />
          </mxGeometry>
        </mxCell>
        <mxCell id="vfQlixo-I0mt2_jxHIi5-22" style="edgeStyle=orthogonalEdgeStyle;curved=1;rounded=0;orthogonalLoop=1;jettySize=auto;html=1;exitX=1;exitY=0.5;exitDx=0;exitDy=0;fontSize=12;startSize=8;endSize=8;entryX=0;entryY=0.5;entryDx=0;entryDy=0;endArrow=none;endFill=0;" edge="1" parent="1" source="e6HZahfR6T_WhfrIHTl6-1" target="vfQlixo-I0mt2_jxHIi5-7">
          <mxGeometry relative="1" as="geometry">
            <mxPoint x="380" y="360" as="targetPoint" />
            <mxPoint x="250" y="645" as="sourcePoint" />
          </mxGeometry>
        </mxCell>
        <mxCell id="vfQlixo-I0mt2_jxHIi5-23" value="后端开发工程师" style="rounded=1;whiteSpace=wrap;html=1;" vertex="1" parent="1">
          <mxGeometry x="700" y="-270" width="120" height="60" as="geometry" />
        </mxCell>
        <mxCell id="vfQlixo-I0mt2_jxHIi5-24" value="前端开发工程师" style="rounded=1;whiteSpace=wrap;html=1;" vertex="1" parent="1">
          <mxGeometry x="700" y="-190" width="120" height="60" as="geometry" />
        </mxCell>
        <mxCell id="vfQlixo-I0mt2_jxHIi5-25" value="全栈开发工程师" style="rounded=1;whiteSpace=wrap;html=1;" vertex="1" parent="1">
          <mxGeometry x="700" y="-110" width="120" height="60" as="geometry" />
        </mxCell>
        <mxCell id="vfQlixo-I0mt2_jxHIi5-26" value="桌面应用开发工程师" style="rounded=1;whiteSpace=wrap;html=1;" vertex="1" parent="1">
          <mxGeometry x="700" y="-30" width="120" height="60" as="geometry" />
        </mxCell>
        <mxCell id="vfQlixo-I0mt2_jxHIi5-27" value="移动应用开发工程师" style="rounded=1;whiteSpace=wrap;html=1;" vertex="1" parent="1">
          <mxGeometry x="700" y="50" width="120" height="60" as="geometry" />
        </mxCell>
        <mxCell id="vfQlixo-I0mt2_jxHIi5-28" value="游戏开发工程师" style="rounded=1;whiteSpace=wrap;html=1;" vertex="1" parent="1">
          <mxGeometry x="700" y="130" width="120" height="60" as="geometry" />
        </mxCell>
        <mxCell id="vfQlixo-I0mt2_jxHIi5-31" style="edgeStyle=none;curved=1;rounded=0;orthogonalLoop=1;jettySize=auto;html=1;exitX=1;exitY=0.5;exitDx=0;exitDy=0;entryX=0;entryY=0.5;entryDx=0;entryDy=0;fontSize=12;startSize=8;endSize=8;endArrow=none;endFill=0;" edge="1" parent="1" source="e6HZahfR6T_WhfrIHTl6-2" target="vfQlixo-I0mt2_jxHIi5-24">
          <mxGeometry relative="1" as="geometry">
            <mxPoint x="450" y="190" as="sourcePoint" />
            <mxPoint x="710" y="-230" as="targetPoint" />
          </mxGeometry>
        </mxCell>
        <mxCell id="vfQlixo-I0mt2_jxHIi5-32" style="edgeStyle=none;curved=1;rounded=0;orthogonalLoop=1;jettySize=auto;html=1;exitX=1;exitY=0.5;exitDx=0;exitDy=0;entryX=0;entryY=0.5;entryDx=0;entryDy=0;fontSize=12;startSize=8;endSize=8;endArrow=none;endFill=0;" edge="1" parent="1" source="e6HZahfR6T_WhfrIHTl6-2" target="vfQlixo-I0mt2_jxHIi5-26">
          <mxGeometry relative="1" as="geometry">
            <mxPoint x="460" y="200" as="sourcePoint" />
            <mxPoint x="720" y="-220" as="targetPoint" />
          </mxGeometry>
        </mxCell>
        <mxCell id="vfQlixo-I0mt2_jxHIi5-33" style="edgeStyle=none;curved=1;rounded=0;orthogonalLoop=1;jettySize=auto;html=1;exitX=1;exitY=0.5;exitDx=0;exitDy=0;entryX=0;entryY=0.5;entryDx=0;entryDy=0;fontSize=12;startSize=8;endSize=8;endArrow=none;endFill=0;" edge="1" parent="1" source="e6HZahfR6T_WhfrIHTl6-2" target="vfQlixo-I0mt2_jxHIi5-25">
          <mxGeometry relative="1" as="geometry">
            <mxPoint x="470" y="210" as="sourcePoint" />
            <mxPoint x="730" y="-210" as="targetPoint" />
          </mxGeometry>
        </mxCell>
        <mxCell id="vfQlixo-I0mt2_jxHIi5-34" style="edgeStyle=none;curved=1;rounded=0;orthogonalLoop=1;jettySize=auto;html=1;exitX=1;exitY=0.5;exitDx=0;exitDy=0;entryX=0;entryY=0.5;entryDx=0;entryDy=0;fontSize=12;startSize=8;endSize=8;endArrow=none;endFill=0;" edge="1" parent="1" source="e6HZahfR6T_WhfrIHTl6-2" target="vfQlixo-I0mt2_jxHIi5-27">
          <mxGeometry relative="1" as="geometry">
            <mxPoint x="480" y="220" as="sourcePoint" />
            <mxPoint x="740" y="-200" as="targetPoint" />
          </mxGeometry>
        </mxCell>
        <mxCell id="vfQlixo-I0mt2_jxHIi5-35" style="edgeStyle=none;curved=1;rounded=0;orthogonalLoop=1;jettySize=auto;html=1;exitX=1;exitY=0.5;exitDx=0;exitDy=0;entryX=0;entryY=0.5;entryDx=0;entryDy=0;fontSize=12;startSize=8;endSize=8;endArrow=none;endFill=0;" edge="1" parent="1" source="e6HZahfR6T_WhfrIHTl6-2" target="vfQlixo-I0mt2_jxHIi5-28">
          <mxGeometry relative="1" as="geometry">
            <mxPoint x="490" y="230" as="sourcePoint" />
            <mxPoint x="750" y="-190" as="targetPoint" />
          </mxGeometry>
        </mxCell>
        <mxCell id="vfQlixo-I0mt2_jxHIi5-37" value="数据科学家" style="rounded=1;whiteSpace=wrap;html=1;" vertex="1" parent="1">
          <mxGeometry x="890" y="160" width="120" height="60" as="geometry" />
        </mxCell>
        <mxCell id="vfQlixo-I0mt2_jxHIi5-38" value="机器学习工程师" style="rounded=1;whiteSpace=wrap;html=1;" vertex="1" parent="1">
          <mxGeometry x="890" y="230" width="120" height="60" as="geometry" />
        </mxCell>
        <mxCell id="vfQlixo-I0mt2_jxHIi5-39" value="深度学习工程师" style="rounded=1;whiteSpace=wrap;html=1;" vertex="1" parent="1">
          <mxGeometry x="900" y="300" width="120" height="60" as="geometry" />
        </mxCell>
        <mxCell id="vfQlixo-I0mt2_jxHIi5-40" style="edgeStyle=none;curved=1;rounded=0;orthogonalLoop=1;jettySize=auto;html=1;exitX=1;exitY=0.5;exitDx=0;exitDy=0;entryX=0;entryY=0.5;entryDx=0;entryDy=0;fontSize=12;startSize=8;endSize=8;endArrow=none;endFill=0;" edge="1" parent="1" source="vfQlixo-I0mt2_jxHIi5-1" target="vfQlixo-I0mt2_jxHIi5-37">
          <mxGeometry relative="1" as="geometry">
            <mxPoint x="450" y="190" as="sourcePoint" />
            <mxPoint x="710" y="170" as="targetPoint" />
          </mxGeometry>
        </mxCell>
        <mxCell id="vfQlixo-I0mt2_jxHIi5-41" style="edgeStyle=none;curved=1;rounded=0;orthogonalLoop=1;jettySize=auto;html=1;exitX=1;exitY=0.5;exitDx=0;exitDy=0;entryX=0;entryY=0.5;entryDx=0;entryDy=0;fontSize=12;startSize=8;endSize=8;endArrow=none;endFill=0;" edge="1" parent="1" source="vfQlixo-I0mt2_jxHIi5-1" target="vfQlixo-I0mt2_jxHIi5-38">
          <mxGeometry relative="1" as="geometry">
            <mxPoint x="460" y="200" as="sourcePoint" />
            <mxPoint x="720" y="180" as="targetPoint" />
          </mxGeometry>
        </mxCell>
        <mxCell id="vfQlixo-I0mt2_jxHIi5-42" style="edgeStyle=none;curved=1;rounded=0;orthogonalLoop=1;jettySize=auto;html=1;exitX=1;exitY=0.5;exitDx=0;exitDy=0;entryX=0;entryY=0.5;entryDx=0;entryDy=0;fontSize=12;startSize=8;endSize=8;endArrow=none;endFill=0;" edge="1" parent="1" source="vfQlixo-I0mt2_jxHIi5-1" target="vfQlixo-I0mt2_jxHIi5-39">
          <mxGeometry relative="1" as="geometry">
            <mxPoint x="470" y="210" as="sourcePoint" />
            <mxPoint x="730" y="190" as="targetPoint" />
          </mxGeometry>
        </mxCell>
        <mxCell id="vfQlixo-I0mt2_jxHIi5-43" value="嵌入式软件工程师&lt;span style=&quot;color: rgba(0, 0, 0, 0); font-family: monospace; font-size: 0px; text-align: start; text-wrap-mode: nowrap;&quot;&gt;%3CmxGraphModel%3E%3Croot%3E%3CmxCell%20id%3D%220%22%2F%3E%3CmxCell%20id%3D%221%22%20parent%3D%220%22%2F%3E%3CmxCell%20id%3D%222%22%20style%3D%22edgeStyle%3Dnone%3Bcurved%3D1%3Brounded%3D0%3BorthogonalLoop%3D1%3BjettySize%3Dauto%3Bhtml%3D1%3BexitX%3D1%3BexitY%3D0.5%3BexitDx%3D0%3BexitDy%3D0%3BentryX%3D0%3BentryY%3D0.5%3BentryDx%3D0%3BentryDy%3D0%3BfontSize%3D12%3BstartSize%3D8%3BendSize%3D8%3BendArrow%3Dnone%3BendFill%3D0%3B%22%20edge%3D%221%22%20parent%3D%221%22%3E%3CmxGeometry%20relative%3D%221%22%20as%3D%22geometry%22%3E%3CmxPoint%20x%3D%22440%22%20y%3D%22180%22%20as%3D%22sourcePoint%22%2F%3E%3CmxPoint%20x%3D%22700%22%20y%3D%22160%22%20as%3D%22targetPoint%22%2F%3E%3C%2FmxGeometry%3E%3C%2FmxCell%3E%3C%2Froot%3E%3C%2FmxGraphModel%3E&lt;/span&gt;" style="rounded=1;whiteSpace=wrap;html=1;" vertex="1" parent="1">
          <mxGeometry x="700" y="330" width="120" height="60" as="geometry" />
        </mxCell>
        <mxCell id="vfQlixo-I0mt2_jxHIi5-44" style="edgeStyle=none;curved=1;rounded=0;orthogonalLoop=1;jettySize=auto;html=1;exitX=1;exitY=0.5;exitDx=0;exitDy=0;entryX=0;entryY=0.5;entryDx=0;entryDy=0;fontSize=12;startSize=8;endSize=8;endArrow=none;endFill=0;" edge="1" parent="1" source="vfQlixo-I0mt2_jxHIi5-2" target="vfQlixo-I0mt2_jxHIi5-43">
          <mxGeometry relative="1" as="geometry">
            <mxPoint x="450" y="310" as="sourcePoint" />
            <mxPoint x="710" y="410" as="targetPoint" />
          </mxGeometry>
        </mxCell>
        <mxCell id="vfQlixo-I0mt2_jxHIi5-45" style="edgeStyle=none;curved=1;rounded=0;orthogonalLoop=1;jettySize=auto;html=1;exitX=1;exitY=0.5;exitDx=0;exitDy=0;entryX=-0.008;entryY=0.4;entryDx=0;entryDy=0;fontSize=12;startSize=8;endSize=8;endArrow=none;endFill=0;entryPerimeter=0;" edge="1" parent="1" source="vfQlixo-I0mt2_jxHIi5-2" target="vfQlixo-I0mt2_jxHIi5-46">
          <mxGeometry relative="1" as="geometry">
            <mxPoint x="460" y="320" as="sourcePoint" />
            <mxPoint x="720" y="420" as="targetPoint" />
          </mxGeometry>
        </mxCell>
        <mxCell id="vfQlixo-I0mt2_jxHIi5-46" value="物联网工程师" style="rounded=1;whiteSpace=wrap;html=1;" vertex="1" parent="1">
          <mxGeometry x="700" y="420" width="120" height="60" as="geometry" />
        </mxCell>
        <mxCell id="vfQlixo-I0mt2_jxHIi5-47" value="网络安全工程师" style="rounded=1;whiteSpace=wrap;html=1;" vertex="1" parent="1">
          <mxGeometry x="900" y="440" width="120" height="60" as="geometry" />
        </mxCell>
        <mxCell id="vfQlixo-I0mt2_jxHIi5-49" value="渗透测试员" style="rounded=1;whiteSpace=wrap;html=1;" vertex="1" parent="1">
          <mxGeometry x="900" y="525" width="120" height="60" as="geometry" />
        </mxCell>
        <mxCell id="vfQlixo-I0mt2_jxHIi5-50" style="edgeStyle=none;curved=1;rounded=0;orthogonalLoop=1;jettySize=auto;html=1;exitX=1;exitY=0.5;exitDx=0;exitDy=0;entryX=0;entryY=0.5;entryDx=0;entryDy=0;fontSize=12;startSize=8;endSize=8;endArrow=none;endFill=0;" edge="1" parent="1" source="vfQlixo-I0mt2_jxHIi5-3" target="vfQlixo-I0mt2_jxHIi5-47">
          <mxGeometry relative="1" as="geometry">
            <mxPoint x="450" y="430" as="sourcePoint" />
            <mxPoint x="709" y="454" as="targetPoint" />
          </mxGeometry>
        </mxCell>
        <mxCell id="vfQlixo-I0mt2_jxHIi5-51" style="edgeStyle=none;curved=1;rounded=0;orthogonalLoop=1;jettySize=auto;html=1;exitX=1;exitY=0.5;exitDx=0;exitDy=0;entryX=0;entryY=0.5;entryDx=0;entryDy=0;fontSize=12;startSize=8;endSize=8;endArrow=none;endFill=0;" edge="1" parent="1" source="vfQlixo-I0mt2_jxHIi5-3" target="vfQlixo-I0mt2_jxHIi5-49">
          <mxGeometry relative="1" as="geometry">
            <mxPoint x="460" y="440" as="sourcePoint" />
            <mxPoint x="719" y="464" as="targetPoint" />
          </mxGeometry>
        </mxCell>
        <mxCell id="vfQlixo-I0mt2_jxHIi5-52" value="区块链开发工程师" style="rounded=1;whiteSpace=wrap;html=1;" vertex="1" parent="1">
          <mxGeometry x="680" y="560" width="120" height="60" as="geometry" />
        </mxCell>
        <mxCell id="vfQlixo-I0mt2_jxHIi5-53" value="智能合约工程师" style="rounded=1;whiteSpace=wrap;html=1;" vertex="1" parent="1">
          <mxGeometry x="680" y="640" width="120" height="60" as="geometry" />
        </mxCell>
        <mxCell id="vfQlixo-I0mt2_jxHIi5-54" style="edgeStyle=none;curved=1;rounded=0;orthogonalLoop=1;jettySize=auto;html=1;exitX=1;exitY=0.5;exitDx=0;exitDy=0;entryX=0;entryY=0.5;entryDx=0;entryDy=0;fontSize=12;startSize=8;endSize=8;endArrow=none;endFill=0;" edge="1" parent="1" source="vfQlixo-I0mt2_jxHIi5-4" target="vfQlixo-I0mt2_jxHIi5-52">
          <mxGeometry relative="1" as="geometry">
            <mxPoint x="450" y="540" as="sourcePoint" />
            <mxPoint x="910" y="565" as="targetPoint" />
          </mxGeometry>
        </mxCell>
        <mxCell id="vfQlixo-I0mt2_jxHIi5-55" style="edgeStyle=none;curved=1;rounded=0;orthogonalLoop=1;jettySize=auto;html=1;exitX=1;exitY=0.5;exitDx=0;exitDy=0;entryX=0;entryY=0.5;entryDx=0;entryDy=0;fontSize=12;startSize=8;endSize=8;endArrow=none;endFill=0;" edge="1" parent="1" source="vfQlixo-I0mt2_jxHIi5-4" target="vfQlixo-I0mt2_jxHIi5-53">
          <mxGeometry relative="1" as="geometry">
            <mxPoint x="460" y="550" as="sourcePoint" />
            <mxPoint x="920" y="575" as="targetPoint" />
          </mxGeometry>
        </mxCell>
        <mxCell id="vfQlixo-I0mt2_jxHIi5-56" value="云计算工程师" style="rounded=1;whiteSpace=wrap;html=1;" vertex="1" parent="1">
          <mxGeometry x="960" y="670" width="120" height="60" as="geometry" />
        </mxCell>
        <mxCell id="vfQlixo-I0mt2_jxHIi5-57" value="系统架构师" style="rounded=1;whiteSpace=wrap;html=1;" vertex="1" parent="1">
          <mxGeometry x="960" y="750" width="120" height="60" as="geometry" />
        </mxCell>
        <mxCell id="vfQlixo-I0mt2_jxHIi5-58" style="edgeStyle=none;curved=1;rounded=0;orthogonalLoop=1;jettySize=auto;html=1;exitX=1;exitY=0.5;exitDx=0;exitDy=0;entryX=0;entryY=0.5;entryDx=0;entryDy=0;fontSize=12;startSize=8;endSize=8;endArrow=none;endFill=0;" edge="1" parent="1" source="vfQlixo-I0mt2_jxHIi5-5" target="vfQlixo-I0mt2_jxHIi5-56">
          <mxGeometry relative="1" as="geometry">
            <mxPoint x="450" y="650" as="sourcePoint" />
            <mxPoint x="690" y="680" as="targetPoint" />
          </mxGeometry>
        </mxCell>
        <mxCell id="vfQlixo-I0mt2_jxHIi5-59" style="edgeStyle=none;curved=1;rounded=0;orthogonalLoop=1;jettySize=auto;html=1;exitX=1;exitY=0.5;exitDx=0;exitDy=0;entryX=0;entryY=0.5;entryDx=0;entryDy=0;fontSize=12;startSize=8;endSize=8;endArrow=none;endFill=0;" edge="1" parent="1" source="vfQlixo-I0mt2_jxHIi5-5" target="vfQlixo-I0mt2_jxHIi5-57">
          <mxGeometry relative="1" as="geometry">
            <mxPoint x="460" y="660" as="sourcePoint" />
            <mxPoint x="700" y="690" as="targetPoint" />
          </mxGeometry>
        </mxCell>
        <mxCell id="vfQlixo-I0mt2_jxHIi5-60" value="前端开发工程师" style="rounded=1;whiteSpace=wrap;html=1;" vertex="1" parent="1">
          <mxGeometry x="650" y="780" width="120" height="60" as="geometry" />
        </mxCell>
        <mxCell id="vfQlixo-I0mt2_jxHIi5-61" value="UI设计师" style="rounded=1;whiteSpace=wrap;html=1;" vertex="1" parent="1">
          <mxGeometry x="650" y="860" width="120" height="60" as="geometry" />
        </mxCell>
        <mxCell id="vfQlixo-I0mt2_jxHIi5-62" style="edgeStyle=none;curved=1;rounded=0;orthogonalLoop=1;jettySize=auto;html=1;exitX=1;exitY=0.5;exitDx=0;exitDy=0;entryX=0;entryY=0.5;entryDx=0;entryDy=0;fontSize=12;startSize=8;endSize=8;endArrow=none;endFill=0;" edge="1" parent="1" source="vfQlixo-I0mt2_jxHIi5-6" target="vfQlixo-I0mt2_jxHIi5-60">
          <mxGeometry relative="1" as="geometry">
            <mxPoint x="450" y="760" as="sourcePoint" />
            <mxPoint x="970" y="790" as="targetPoint" />
          </mxGeometry>
        </mxCell>
        <mxCell id="vfQlixo-I0mt2_jxHIi5-63" style="edgeStyle=none;curved=1;rounded=0;orthogonalLoop=1;jettySize=auto;html=1;exitX=1;exitY=0.5;exitDx=0;exitDy=0;entryX=0;entryY=0.5;entryDx=0;entryDy=0;fontSize=12;startSize=8;endSize=8;endArrow=none;endFill=0;" edge="1" parent="1" source="vfQlixo-I0mt2_jxHIi5-6" target="vfQlixo-I0mt2_jxHIi5-61">
          <mxGeometry relative="1" as="geometry">
            <mxPoint x="450" y="870" as="sourcePoint" />
            <mxPoint x="660" y="820" as="targetPoint" />
          </mxGeometry>
        </mxCell>
        <mxCell id="vfQlixo-I0mt2_jxHIi5-64" value="产品经理" style="rounded=1;whiteSpace=wrap;html=1;" vertex="1" parent="1">
          <mxGeometry x="890" y="900" width="120" height="60" as="geometry" />
        </mxCell>
        <mxCell id="vfQlixo-I0mt2_jxHIi5-65" value="项目经理" style="rounded=1;whiteSpace=wrap;html=1;" vertex="1" parent="1">
          <mxGeometry x="890" y="1000" width="120" height="60" as="geometry" />
        </mxCell>
        <mxCell id="vfQlixo-I0mt2_jxHIi5-66" value="" style="endArrow=none;html=1;rounded=0;fontSize=12;startSize=8;endSize=8;curved=1;exitX=1;exitY=0.5;exitDx=0;exitDy=0;entryX=0;entryY=0.5;entryDx=0;entryDy=0;" edge="1" parent="1" source="vfQlixo-I0mt2_jxHIi5-7" target="vfQlixo-I0mt2_jxHIi5-64">
          <mxGeometry width="50" height="50" relative="1" as="geometry">
            <mxPoint x="550" y="970" as="sourcePoint" />
            <mxPoint x="600" y="920" as="targetPoint" />
          </mxGeometry>
        </mxCell>
        <mxCell id="vfQlixo-I0mt2_jxHIi5-67" style="edgeStyle=none;curved=1;rounded=0;orthogonalLoop=1;jettySize=auto;html=1;exitX=1;exitY=0.5;exitDx=0;exitDy=0;entryX=0;entryY=0.5;entryDx=0;entryDy=0;fontSize=12;startSize=8;endSize=8;endArrow=none;endFill=0;" edge="1" parent="1" source="vfQlixo-I0mt2_jxHIi5-7" target="vfQlixo-I0mt2_jxHIi5-65">
          <mxGeometry relative="1" as="geometry">
            <mxPoint x="460" y="880" as="sourcePoint" />
            <mxPoint x="670" y="830" as="targetPoint" />
          </mxGeometry>
        </mxCell>
      </root>
    </mxGraphModel>
  </diagram>
</mxfile>
